<svg width="21" height="21" viewBox="0 0 21 21" fill="none" xmlns="http://www.w3.org/2000/svg">
<path id="close" d="M20.3166 17.0172L14.6243 11.3249C14.1681 10.8687 14.1681 10.1302 14.6243 9.67514L20.3166 3.98282C21.2278 3.07163 21.2278 1.59459 20.3166 0.683394C19.4054 -0.227798 17.9284 -0.227798 17.0172 0.683394L11.3249 6.37572C10.8687 6.8319 10.1302 6.8319 9.67514 6.37572L3.98282 0.683394C3.07163 -0.227798 1.59459 -0.227798 0.683394 0.683394C-0.227798 1.59459 -0.227798 3.07163 0.683394 3.98282L6.37572 9.67514C6.8319 10.1313 6.8319 10.8698 6.37572 11.3249L0.683394 17.0172C-0.227798 17.9284 -0.227798 19.4054 0.683394 20.3166C1.59459 21.2278 3.07163 21.2278 3.98282 20.3166L9.67514 14.6243C10.1313 14.1681 10.8698 14.1681 11.3249 14.6243L17.0172 20.3166C17.9284 21.2278 19.4054 21.2278 20.3166 20.3166C21.2278 19.4054 21.2278 17.9284 20.3166 17.0172Z" fill="#306263"/>
</svg>
